<svg data-v-0dd9719b="" version="1.0" xmlns="http://www.w3.org/2000/svg" xmlns:xlink="http://www.w3.org/1999/xlink" width="100%" height="100%" viewBox="0 0 340.000000 250.000000" preserveAspectRatio="xMidYMid meet" color-interpolation-filters="sRGB" style="margin: auto;"> <rect data-v-0dd9719b="" x="0" y="0" width="100%" height="100%" fill="#fff" fill-opacity="1" class="background"></rect> <rect data-v-0dd9719b="" x="0" y="0" width="100%" height="100%" fill="url(#watermark)" fill-opacity="1" class="watermarklayer"></rect> <g data-v-0dd9719b="" fill="#00a99d" class="icon-text-wrapper icon-svg-group iconsvg" transform="translate(47.42500305175781,87.36592864990234)"><g class="iconsvg-imagesvg" transform="translate(0,0)"><g><rect fill="#00a99d" fill-opacity="0" stroke-width="2" x="0" y="0" width="60" height="75.26814275857743" class="image-rect"></rect> <svg x="0" y="0" width="60" height="75.26814275857743" filtersec="colorsb3187708913" class="image-svg-svg primary" style="overflow: visible;"><svg xmlns="http://www.w3.org/2000/svg" viewBox="0 0 59.29999923706055 74.38999938964844"><title>d10</title><g data-name="图层 2"><path d="M22.16 0H0v26.63h14.05V14.34l29.61 22.85L14.05 60V47.76H0v26.63h22.16c49.52 0 49.52-74.39 0-74.39z" fill="#00a99d" data-name="Layer 1"></path></g></svg></svg> <!----></g></g> <g transform="translate(67,26.80907154083252)"><g data-gra="path-name" fill-rule="" class="tp-name iconsvg-namesvg"><g transform="scale(1)"><g><path d="M2-21.05L2 0 10.07 0C16.38 0 20.41-2.4 20.41-10.52 20.41-19.29 16.38-21.05 10.07-21.05ZM8.04-5.16L8.04-16.01 9.71-16.01C13.1-16.01 14.13-14.92 14.13-10.52 14.13-6.31 13.22-5.16 9.71-5.16ZM39 0L45.43 0 37.76-21.05 29.6-21.05 21.87 0 28.18 0 29.66-4.43 37.55-4.43ZM31.27-9.28L33.45-15.86 33.82-15.86 35.97-9.28ZM61.93-21.05L45.89-21.05 45.89-15.77 50.89-15.77 50.89 0 56.9 0 56.9-15.77 61.93-15.77ZM79.55 0L85.98 0 78.31-21.05 70.15-21.05 62.42 0 68.72 0 70.21-4.43 78.1-4.43ZM71.82-9.28L74-15.86 74.37-15.86 76.52-9.28ZM93.5 0L100.99 0 108.55-21.05 102.18-21.05 97.51-6.43 97.32-6.43 92.9-21.05 86.16-21.05ZM110.88 0L116.92 0 116.92-21.05 110.88-21.05ZM126.59 0.3C133.11 0.3 135.14-2.15 135.14-6.34 135.14-10.16 134.51-11.83 129.26-13.19 126.65-13.86 126.2-14.07 126.2-15.04 126.2-16.04 126.96-16.5 128.9-16.5 130.56-16.5 133.2-16.1 134.08-15.77L134.08-20.59C132.9-20.99 131.26-21.35 128.62-21.35 123.59-21.35 120.37-19.77 120.37-14.8 120.37-11.07 121.47-9.61 126.08-8.55 128.71-7.92 129.11-7.4 129.11-6.52 129.11-5.22 128.78-4.79 126.26-4.79 124.38-4.79 121.92-5.19 120.53-5.58L120.53-0.39C122.01-0.03 124.26 0.3 126.59 0.3ZM148.09 0.3C154.37 0.3 158.01-1.85 158.01-10.52 158.01-19.17 154.37-21.35 148.09-21.35 141.85-21.35 138.18-19.17 138.18-10.52 138.18-1.85 141.85 0.3 148.09 0.3ZM148.09-4.67C145.21-4.67 144.55-6.01 144.55-10.52 144.55-15.1 145.21-16.47 148.09-16.47 150.98-16.47 151.67-15.1 151.67-10.52 151.67-6.01 150.98-4.67 148.09-4.67ZM180.15 0L174.51-7.7C177.06-8.64 178.18-10.61 178.18-14.01 178.18-19.02 175.39-21.05 170.02-21.05L161.47-21.05 161.47 0 167.5 0 167.5-7.07 168.69-7.07 173.02 0ZM167.5-16.44L168.96-16.44C171.42-16.44 172.24-15.95 172.24-14.01 172.24-12.04 171.42-11.37 168.96-11.37L167.5-11.37Z" transform="translate(-2, 21.350000381469727)"></path></g> <!----> <!----> <!----> <!----> <!----> <!----> <!----></g></g> <!----></g></g><defs v-gra="od"></defs></svg>